<svg t="1732775316703" class="icon" viewBox="0 0 1024 1024" version="1.1" xmlns="http://www.w3.org/2000/svg" p-id="26626" width="32" height="32"><path d="M64 160a96 96 0 0 1 96-96h224a96 96 0 0 1 96 96v224a96 96 0 0 1-96 96H160a96 96 0 0 1-96-96V160z m0 480a96 96 0 0 1 96-96h224a96 96 0 0 1 96 96v224a96 96 0 0 1-96 96H160a96 96 0 0 1-96-96V640z m576-96a96 96 0 0 0-96 96v224a96 96 0 0 0 96 96h224a96 96 0 0 0 96-96V640a96 96 0 0 0-96-96H640zM640 64h224q96 0 96 96v224q0 96-96 96H640q-96 0-96-96V160q0-96 96-96z" p-id="26627" fill="#5277df"></path></svg>