<svg t="1733122667947" class="icon" viewBox="0 0 1024 1024" version="1.1" xmlns="http://www.w3.org/2000/svg" p-id="2743" width="32" height="32"><path d="M98 98.2h830.1v830.1H98z" fill="#49AECB" p-id="2744"></path><path d="M458 735.7c-13.6 0.4-24.6-4.6-33.8-13.8-63.4-63.4-127-126.6-190.1-190.3-19.7-19.9-19.9-48.3-2-66.7 18.5-18.9 47.5-19 68 1.2 48.3 47.6 96.5 95.4 143.7 144.1 11.8 12.2 17.7 10.3 28.5-0.6 93-93.8 186.7-187.1 280-280.6 10.7-10.7 22-19.3 38.2-19.4 18.9-0.1 33.3 8 42 24.4 9 17 7.5 34.2-3.9 50-2.4 3.3-5.4 6.3-8.3 9.2-108.5 108.4-217 216.8-325.4 325.3-10.4 10.4-21.9 17.9-36.9 17.2z" fill="#FFFFFF" p-id="2745"></path></svg>