<svg t="1733122040524" class="icon" viewBox="0 0 1024 1024" version="1.1" xmlns="http://www.w3.org/2000/svg" p-id="1460"
    width="32" height="32">
    <path
        d="M842 62H182c-66 0-120 54-120 120v660c0 66 54 120 120 120h660c66 0 120-54 120-120V182c0-66-54-120-120-120z m30 750c0 33-27 60-60 60H212c-33 0-60-27-60-60V212c0-33 27-60 60-60h600c33 0 60 27 60 60v600z"
        fill="#ffffff" p-id="1461"></path>
    <path d="M662 302H362c-33 0-60 27-60 60v300c0 33 27 60 60 60h300c33 0 60-27 60-60V362c0-33-27-60-60-60z"
        fill="#6056eb" p-id="1462"></path>
</svg>