<svg t="1732764334344" class="icon" viewBox="0 0 1024 1024" version="1.1" xmlns="http://www.w3.org/2000/svg" p-id="9999" width="32" height="32"><path d="M761.6 97.2c91.9 0 166.4 74.5 166.4 166.4v499.2c0 91.9-74.5 166.4-166.4 166.4H262.4C170.5 929.2 96 854.7 96 762.8V263.6c0-91.9 74.5-166.4 166.4-166.4h499.2z m-309 178.3H407c-26.9 0-47.1 7.5-60.6 22.4-12.7 13.6-19 32.1-19 55.5V446c0 14.3-3.5 24.9-10.4 32.1-8.1 7.1-22.3 11.5-42.7 13.2v43.8c20.4 1 34.6 5.6 42.7 13.7 6.9 6.1 10.4 16.6 10.4 31.6v93.2c0 22.7 6.3 41.1 19 55 13.8 14.9 34 22.4 60.6 22.4h45.6v-44.3h-34c-20.8 0-31.2-10.3-31.2-31.1v-98.2c0-30.5-16.7-51.9-50.2-64.1 33.5-10.9 50.2-32.2 50.2-64.1v-97.7c0-21 10.4-31.6 31.2-31.6h34v-44.4z m164.4 0h-45.6v44.3h34c20.8 0 31.2 10.5 31.2 31.6v97.7c0 31.9 16.7 53.3 50.2 64.1-33.5 12.2-50.2 33.6-50.2 64.1v98.2c0 20.7-10.4 31.1-31.2 31.1h-34v44.3H617c25.8 0 46-7.5 60.6-22.4 12.7-13.9 19-32.2 19-55v-93.2c0-14.9 3.5-25.5 10.4-31.6 8.1-8.1 22.3-12.7 42.7-13.7v-43.8c-20.8-1.4-34.8-5.6-42.1-12.7-7.3-6.8-11-17.6-11-32.6v-92.6c0-23.4-6.3-41.9-19-55.5-14.2-14.8-34.4-22.3-60.6-22.3z" fill="#4FB9D6" p-id="10000"></path></svg>