<svg t="1732794903020" class="icon" viewBox="0 0 1024 1024" version="1.1" xmlns="http://www.w3.org/2000/svg" p-id="6363" width="64" height="64"><path d="M853.333333 128v42.666667h-85.333333V128H256v42.666667H170.666667V128H128v768h42.666667v-42.666667h85.333333v42.666667h512v-42.666667h85.333333v42.666667h42.666667V128zM256 810.666667H170.666667v-85.333334h85.333333z m0-128H170.666667v-85.333334h85.333333z m0-128H170.666667v-85.333334h85.333333z m0-128H170.666667v-85.333334h85.333333z m0-128H170.666667v-85.333334h85.333333z m597.333333 512h-85.333333v-85.333334h85.333333z m0-128h-85.333333v-85.333334h85.333333z m0-128h-85.333333v-85.333334h85.333333z m0-128h-85.333333v-85.333334h85.333333z m0-128h-85.333333v-85.333334h85.333333z" fill="#E64A19" p-id="6364"></path></svg>