<svg t="1732765797927" class="icon" viewBox="0 0 1024 1024" version="1.1" xmlns="http://www.w3.org/2000/svg" p-id="20077" width="32" height="32"><path d="M0 160a64 64 0 0 1 64-64h192a64 64 0 0 1 64 64v736a64 64 0 0 1-64 64H64a64 64 0 0 1-64-64V160z m32 0v736q0 13.248 9.376 22.624T64 928h192q13.248 0 22.624-9.376T288 896V160q0-13.248-9.376-22.624T256 128H64q-13.248 0-22.624 9.376T32 160z" fill="#3B4251" p-id="20078"></path><path d="M704 160a64 64 0 0 1 64-64h192a64 64 0 0 1 64 64v736a64 64 0 0 1-64 64h-192a64 64 0 0 1-64-64V160z" fill="#0098EC" p-id="20079"></path><path d="M614.464 304H352v-32h262.464v32z" fill="#3B4251" p-id="20080"></path><path d="M672 560h-275.36v-32H672v32zM672 816h-276.864v-32H672v32z" fill="#0098EC" p-id="20081"></path><path d="M617.504 328.192a3.2 3.2 0 0 1-4.8-2.784V249.6a3.2 3.2 0 0 1 4.8-2.752l65.696 37.92a3.2 3.2 0 0 1 0 5.536l-65.696 37.92z" fill="#3B4251" p-id="20082"></path><path d="M406.496 498.432a3.2 3.2 0 0 1 4.8 2.784v75.84a3.2 3.2 0 0 1-4.8 2.752l-65.696-37.92a3.2 3.2 0 0 1 0-5.536l65.696-37.92zM406.496 754.432a3.2 3.2 0 0 1 4.8 2.784v75.84a3.2 3.2 0 0 1-4.8 2.752l-65.696-37.92a3.2 3.2 0 0 1 0-5.536l65.696-37.92z" fill="#0098EC" p-id="20083"></path></svg>