<svg id="图层_1" data-name="图层 1" xmlns="http://www.w3.org/2000/svg" viewBox="0 0 320 345"><path d="M.5,112.5H316.42a3.08,3.08,0,0,1,3.08,3.08V315.32a29.18,29.18,0,0,1-29.18,29.18H23.82A23.32,23.32,0,0,1,.5,321.18V112.5A0,0,0,0,1,.5,112.5Z" style="fill:#29abe2;stroke:#736357;stroke-miterlimit:10"/><path d="M23.82.5H290.32A29.18,29.18,0,0,1,319.5,29.68V85.42a3.08,3.08,0,0,1-3.08,3.08H.5a0,0,0,0,1,0,0V23.82A23.32,23.32,0,0,1,23.82.5Z" style="fill:#29abe2;stroke:#736357;stroke-miterlimit:10"/><circle cx="43" cy="45" r="11.5" style="fill:#fff;stroke:#736357;stroke-miterlimit:10"/><circle cx="84" cy="45" r="11.5" style="fill:#fff;stroke:#736357;stroke-miterlimit:10"/><circle cx="128" cy="45" r="11.5" style="fill:#fff;stroke:#736357;stroke-miterlimit:10"/><text transform="translate(43.44 261.53)" style="font-size:109.40966796875px;fill:#fff;font-family:MicrosoftYaHei-Bold, Microsoft YaHei;font-weight:700">G<tspan x="83.71" y="0" style="letter-spacing:0.007818950243449621em">E</tspan><tspan x="147.13" y="0" style="letter-spacing:-0.000008925742287042947em">T</tspan></text></svg>