<svg id="图层_1" data-name="图层 1" xmlns="http://www.w3.org/2000/svg" viewBox="0 0 320 345"><defs><style>.cls-1{fill:#22b573;}.cls-1,.cls-2{stroke:#736357;stroke-miterlimit:10;}.cls-2,.cls-3{fill:#fff;}.cls-3{font-size:109.41px;font-family:MicrosoftYaHei-Bold, Microsoft YaHei;font-weight:700;}</style></defs><path class="cls-1" d="M.5,112.5H316.42a3.08,3.08,0,0,1,3.08,3.08V315.32a29.18,29.18,0,0,1-29.18,29.18H23.82A23.32,23.32,0,0,1,.5,321.18V112.5A0,0,0,0,1,.5,112.5Z"/><path class="cls-1" d="M23.82.5H290.32A29.18,29.18,0,0,1,319.5,29.68V85.42a3.08,3.08,0,0,1-3.08,3.08H.5a0,0,0,0,1,0,0V23.82A23.32,23.32,0,0,1,23.82.5Z"/><circle class="cls-2" cx="43" cy="45" r="11.5"/><circle class="cls-2" cx="84" cy="45" r="11.5"/><circle class="cls-2" cx="128" cy="45" r="11.5"/><text class="cls-3" transform="translate(9.44 269.53)">POST</text></svg>