<svg t="1732782173025" class="icon" viewBox="0 0 1024 1024" version="1.1" xmlns="http://www.w3.org/2000/svg" p-id="31379" width="32" height="32"><path d="M896 98H128c-35.3 0-64 28.7-64 64v127h896V162c0-35.3-28.7-64-64-64zM161 225.5c-17.7 0-32-14.3-32-32s14.3-32 32-32 32 14.3 32 32-14.3 32-32 32z m127-0.5c-17.7 0-32-14.3-32-32s14.3-32 32-32 32 14.3 32 32-14.3 32-32 32z m127-0.5c-17.7 0-32-14.3-32-32s14.3-32 32-32 32 14.3 32 32-14.3 32-32 32zM64 321v544c0 35.3 28.7 64 64 64h768c35.3 0 64-28.7 64-64V321H64z m316.1 214.7H265.6c-24.7 0-42.6 5.4-53.7 16.2-13.3 12.8-20 35.7-20 68.7 0 16.9 1.7 32.2 5.2 45.8 3.5 13.6 8.3 23.7 14.4 30.4 5.3 6.1 12.6 10.5 21.9 13.3 9.3 2.8 20.7 4.2 34.3 4.2h53.7v-65.8H244V599h136.1v164.8H256c-21.4 0-38.4-1.6-51-4.8-12.6-3.2-24.1-8.8-34.3-16.9C141.6 719.7 127 681 127 626c0-35.8 6.9-65.6 20.8-89.5 10.3-17.5 24.3-30.2 42-38.3 17.8-8 40.8-12.1 69.1-12.1H380v49.6z m257.6 0h-77c-20 0-34.5 1.4-43.7 4.2-9.2 2.8-16.8 8.2-22.9 16.2-4.2 5.6-7 11.1-8.5 16.6-1.5 5.6-2.8 15-4 28.3h156.1v49.5H481.6c2.2 23.9 9.3 40.4 21.2 49.7 11.9 9.3 32.2 13.9 60.8 13.9h74.1v49.5h-77c-20.8 0-39.1-1.2-54.9-3.7-25-4.2-44.8-15.1-59.5-32.9-21.1-25.5-31.6-60.1-31.6-103.6 0-48.3 14.8-85.9 44.5-112.8 10.3-9.2 21.2-15.5 32.7-19.1 11.5-3.6 27-5.4 46.4-5.4h99.5v49.6z m259.3 0h-92v228.1h-59.1V535.7h-88.2v-49.5H897v49.5z" fill="#DBB583" p-id="31380"></path></svg>